<mxfile host="Electron" agent="Mozilla/5.0 (Windows NT 10.0; Win64; x64) AppleWebKit/537.36 (KHTML, like Gecko) draw.io/24.7.17 Chrome/128.0.6613.36 Electron/32.0.1 Safari/537.36" version="24.7.17">
  <diagram name="Pagina-1" id="SEDRAFwqaWNcLIJt42d1">
    <mxGraphModel dx="1619" dy="713" grid="1" gridSize="10" guides="1" tooltips="1" connect="1" arrows="1" fold="1" page="0" pageScale="1" pageWidth="827" pageHeight="1169" math="0" shadow="0">
      <root>
        <mxCell id="0" />
        <mxCell id="1" parent="0" />
        <mxCell id="xE1f15krdCZi4l15C0Xl-20" style="edgeStyle=orthogonalEdgeStyle;rounded=0;orthogonalLoop=1;jettySize=auto;html=1;entryX=0.5;entryY=1;entryDx=0;entryDy=0;" edge="1" parent="1" source="xE1f15krdCZi4l15C0Xl-2" target="xE1f15krdCZi4l15C0Xl-9">
          <mxGeometry relative="1" as="geometry" />
        </mxCell>
        <mxCell id="xE1f15krdCZi4l15C0Xl-25" style="edgeStyle=orthogonalEdgeStyle;rounded=0;orthogonalLoop=1;jettySize=auto;html=1;" edge="1" parent="1" source="xE1f15krdCZi4l15C0Xl-2">
          <mxGeometry relative="1" as="geometry">
            <mxPoint x="409.9999999999998" y="440" as="targetPoint" />
          </mxGeometry>
        </mxCell>
        <mxCell id="xE1f15krdCZi4l15C0Xl-2" value="Destinazione" style="rounded=0;whiteSpace=wrap;html=1;" vertex="1" parent="1">
          <mxGeometry x="350" y="500" width="120" height="60" as="geometry" />
        </mxCell>
        <mxCell id="xE1f15krdCZi4l15C0Xl-19" style="edgeStyle=orthogonalEdgeStyle;rounded=0;orthogonalLoop=1;jettySize=auto;html=1;" edge="1" parent="1" source="xE1f15krdCZi4l15C0Xl-3" target="xE1f15krdCZi4l15C0Xl-8">
          <mxGeometry relative="1" as="geometry" />
        </mxCell>
        <mxCell id="xE1f15krdCZi4l15C0Xl-21" style="edgeStyle=orthogonalEdgeStyle;rounded=0;orthogonalLoop=1;jettySize=auto;html=1;entryX=0.5;entryY=0;entryDx=0;entryDy=0;" edge="1" parent="1" source="xE1f15krdCZi4l15C0Xl-3" target="xE1f15krdCZi4l15C0Xl-9">
          <mxGeometry relative="1" as="geometry" />
        </mxCell>
        <mxCell id="xE1f15krdCZi4l15C0Xl-26" style="edgeStyle=orthogonalEdgeStyle;rounded=0;orthogonalLoop=1;jettySize=auto;html=1;" edge="1" parent="1" source="xE1f15krdCZi4l15C0Xl-3">
          <mxGeometry relative="1" as="geometry">
            <mxPoint x="220" y="260" as="targetPoint" />
          </mxGeometry>
        </mxCell>
        <mxCell id="xE1f15krdCZi4l15C0Xl-28" style="edgeStyle=orthogonalEdgeStyle;rounded=0;orthogonalLoop=1;jettySize=auto;html=1;" edge="1" parent="1" source="xE1f15krdCZi4l15C0Xl-3">
          <mxGeometry relative="1" as="geometry">
            <mxPoint x="409.9999999999998" y="340" as="targetPoint" />
          </mxGeometry>
        </mxCell>
        <mxCell id="xE1f15krdCZi4l15C0Xl-3" value="Pacchetti Vac." style="rounded=0;whiteSpace=wrap;html=1;" vertex="1" parent="1">
          <mxGeometry x="350" y="230" width="120" height="60" as="geometry" />
        </mxCell>
        <mxCell id="xE1f15krdCZi4l15C0Xl-24" style="edgeStyle=orthogonalEdgeStyle;rounded=0;orthogonalLoop=1;jettySize=auto;html=1;entryX=0;entryY=0.5;entryDx=0;entryDy=0;" edge="1" parent="1" source="xE1f15krdCZi4l15C0Xl-4" target="xE1f15krdCZi4l15C0Xl-8">
          <mxGeometry relative="1" as="geometry" />
        </mxCell>
        <mxCell id="xE1f15krdCZi4l15C0Xl-4" value="Recensione" style="rounded=0;whiteSpace=wrap;html=1;" vertex="1" parent="1">
          <mxGeometry x="-110" y="230" width="120" height="60" as="geometry" />
        </mxCell>
        <mxCell id="xE1f15krdCZi4l15C0Xl-8" value="Contiene" style="rhombus;whiteSpace=wrap;html=1;" vertex="1" parent="1">
          <mxGeometry x="130" y="220" width="80" height="80" as="geometry" />
        </mxCell>
        <mxCell id="xE1f15krdCZi4l15C0Xl-9" value="Ha" style="rhombus;whiteSpace=wrap;html=1;" vertex="1" parent="1">
          <mxGeometry x="370" y="350" width="80" height="80" as="geometry" />
        </mxCell>
        <mxCell id="xE1f15krdCZi4l15C0Xl-27" value="" style="endArrow=none;html=1;rounded=0;" edge="1" parent="1">
          <mxGeometry width="50" height="50" relative="1" as="geometry">
            <mxPoint x="330" y="270" as="sourcePoint" />
            <mxPoint x="330" y="250" as="targetPoint" />
          </mxGeometry>
        </mxCell>
        <mxCell id="xE1f15krdCZi4l15C0Xl-31" value="" style="endArrow=none;html=1;rounded=0;" edge="1" parent="1">
          <mxGeometry width="50" height="50" relative="1" as="geometry">
            <mxPoint x="400" y="490" as="sourcePoint" />
            <mxPoint x="420" y="490" as="targetPoint" />
          </mxGeometry>
        </mxCell>
        <mxCell id="xE1f15krdCZi4l15C0Xl-32" value="" style="endArrow=none;html=1;rounded=0;" edge="1" parent="1">
          <mxGeometry width="50" height="50" relative="1" as="geometry">
            <mxPoint x="400" y="300" as="sourcePoint" />
            <mxPoint x="420" y="300" as="targetPoint" />
          </mxGeometry>
        </mxCell>
        <mxCell id="xE1f15krdCZi4l15C0Xl-33" value="IDRec" style="text;html=1;align=center;verticalAlign=middle;whiteSpace=wrap;rounded=0;" vertex="1" parent="1">
          <mxGeometry x="-30" y="310" width="60" height="30" as="geometry" />
        </mxCell>
        <mxCell id="xE1f15krdCZi4l15C0Xl-34" value="Nome Ut" style="text;html=1;align=center;verticalAlign=middle;whiteSpace=wrap;rounded=0;" vertex="1" parent="1">
          <mxGeometry x="-30" y="340" width="60" height="30" as="geometry" />
        </mxCell>
        <mxCell id="xE1f15krdCZi4l15C0Xl-35" value="Voto" style="text;html=1;align=center;verticalAlign=middle;whiteSpace=wrap;rounded=0;" vertex="1" parent="1">
          <mxGeometry x="-30" y="370" width="60" height="30" as="geometry" />
        </mxCell>
        <mxCell id="xE1f15krdCZi4l15C0Xl-36" value="Commento" style="text;html=1;align=center;verticalAlign=middle;whiteSpace=wrap;rounded=0;" vertex="1" parent="1">
          <mxGeometry x="-30" y="400" width="60" height="30" as="geometry" />
        </mxCell>
        <mxCell id="xE1f15krdCZi4l15C0Xl-37" value="Data" style="text;html=1;align=center;verticalAlign=middle;whiteSpace=wrap;rounded=0;" vertex="1" parent="1">
          <mxGeometry x="-30" y="430" width="60" height="30" as="geometry" />
        </mxCell>
        <mxCell id="xE1f15krdCZi4l15C0Xl-38" value="PaccRIF" style="text;html=1;align=center;verticalAlign=middle;whiteSpace=wrap;rounded=0;" vertex="1" parent="1">
          <mxGeometry x="-30" y="460" width="60" height="30" as="geometry" />
        </mxCell>
        <mxCell id="xE1f15krdCZi4l15C0Xl-39" value="IDPac" style="text;html=1;align=center;verticalAlign=middle;whiteSpace=wrap;rounded=0;" vertex="1" parent="1">
          <mxGeometry x="480" y="245" width="60" height="30" as="geometry" />
        </mxCell>
        <mxCell id="xE1f15krdCZi4l15C0Xl-40" value="Nome pac" style="text;html=1;align=center;verticalAlign=middle;whiteSpace=wrap;rounded=0;" vertex="1" parent="1">
          <mxGeometry x="480" y="275" width="60" height="25" as="geometry" />
        </mxCell>
        <mxCell id="xE1f15krdCZi4l15C0Xl-41" value="Prezzo" style="text;html=1;align=center;verticalAlign=middle;whiteSpace=wrap;rounded=0;" vertex="1" parent="1">
          <mxGeometry x="480" y="300" width="60" height="30" as="geometry" />
        </mxCell>
        <mxCell id="xE1f15krdCZi4l15C0Xl-42" value="Durata" style="text;html=1;align=center;verticalAlign=middle;whiteSpace=wrap;rounded=0;" vertex="1" parent="1">
          <mxGeometry x="480" y="330" width="60" height="30" as="geometry" />
        </mxCell>
        <mxCell id="xE1f15krdCZi4l15C0Xl-43" value="DataIniz" style="text;html=1;align=center;verticalAlign=middle;whiteSpace=wrap;rounded=0;" vertex="1" parent="1">
          <mxGeometry x="480" y="360" width="60" height="30" as="geometry" />
        </mxCell>
        <mxCell id="xE1f15krdCZi4l15C0Xl-44" value="DataFin" style="text;html=1;align=center;verticalAlign=middle;whiteSpace=wrap;rounded=0;" vertex="1" parent="1">
          <mxGeometry x="480" y="390" width="60" height="30" as="geometry" />
        </mxCell>
        <mxCell id="xE1f15krdCZi4l15C0Xl-45" value="CodPac" style="text;html=1;align=center;verticalAlign=middle;whiteSpace=wrap;rounded=0;" vertex="1" parent="1">
          <mxGeometry x="480" y="420" width="60" height="30" as="geometry" />
        </mxCell>
        <mxCell id="xE1f15krdCZi4l15C0Xl-46" value="ID_des_pac" style="text;html=1;align=center;verticalAlign=middle;whiteSpace=wrap;rounded=0;" vertex="1" parent="1">
          <mxGeometry x="270" y="350" width="60" height="30" as="geometry" />
        </mxCell>
        <mxCell id="xE1f15krdCZi4l15C0Xl-47" value="DesRif" style="text;html=1;align=center;verticalAlign=middle;whiteSpace=wrap;rounded=0;" vertex="1" parent="1">
          <mxGeometry x="270" y="380" width="60" height="30" as="geometry" />
        </mxCell>
        <mxCell id="xE1f15krdCZi4l15C0Xl-48" value="PacRif" style="text;html=1;align=center;verticalAlign=middle;whiteSpace=wrap;rounded=0;" vertex="1" parent="1">
          <mxGeometry x="270" y="410" width="60" height="30" as="geometry" />
        </mxCell>
        <mxCell id="xE1f15krdCZi4l15C0Xl-49" value="IDDes" style="text;html=1;align=center;verticalAlign=middle;whiteSpace=wrap;rounded=0;" vertex="1" parent="1">
          <mxGeometry x="420" y="580" width="60" height="30" as="geometry" />
        </mxCell>
        <mxCell id="xE1f15krdCZi4l15C0Xl-50" value="CodDes" style="text;html=1;align=center;verticalAlign=middle;whiteSpace=wrap;rounded=0;" vertex="1" parent="1">
          <mxGeometry x="420" y="610" width="60" height="30" as="geometry" />
        </mxCell>
        <mxCell id="xE1f15krdCZi4l15C0Xl-51" value="Nome" style="text;html=1;align=center;verticalAlign=middle;whiteSpace=wrap;rounded=0;" vertex="1" parent="1">
          <mxGeometry x="420" y="640" width="60" height="30" as="geometry" />
        </mxCell>
        <mxCell id="xE1f15krdCZi4l15C0Xl-52" value="Descrizione" style="text;html=1;align=center;verticalAlign=middle;whiteSpace=wrap;rounded=0;" vertex="1" parent="1">
          <mxGeometry x="420" y="670" width="60" height="30" as="geometry" />
        </mxCell>
        <mxCell id="xE1f15krdCZi4l15C0Xl-53" value="Paese" style="text;html=1;align=center;verticalAlign=middle;whiteSpace=wrap;rounded=0;" vertex="1" parent="1">
          <mxGeometry x="420" y="700" width="60" height="30" as="geometry" />
        </mxCell>
        <mxCell id="xE1f15krdCZi4l15C0Xl-54" value="ImgURL" style="text;html=1;align=center;verticalAlign=middle;whiteSpace=wrap;rounded=0;" vertex="1" parent="1">
          <mxGeometry x="420" y="730" width="60" height="30" as="geometry" />
        </mxCell>
      </root>
    </mxGraphModel>
  </diagram>
</mxfile>
